<?xml version="1.0" standalone="no"?>
<!DOCTYPE svg PUBLIC "-//W3C//DTD SVG 20010904//EN"
 "http://www.w3.org/TR/2001/REC-SVG-20010904/DTD/svg10.dtd">
<svg version="1.0" xmlns="http://www.w3.org/2000/svg"
 width="700.000000pt" height="700.000000pt" viewBox="0 0 700.000000 700.000000"
 preserveAspectRatio="xMidYMid meet">
<metadata>
Created by potrace 1.14, written by Peter Selinger 2001-2017
</metadata>
<g transform="translate(0.000000,700.000000) scale(0.100000,-0.100000)"
fill="#000000" stroke="none">
<path d="M3348 6635 c-1 -1 -39 -5 -83 -9 -44 -3 -89 -8 -100 -10 -11 -2 -40
-7 -65 -10 -141 -19 -330 -70 -475 -126 -275 -108 -502 -256 -710 -465 -124
-124 -260 -298 -249 -317 4 -7 4 -10 -1 -6 -4 4 -37 -43 -74 -105 -66 -113
-115 -207 -106 -207 2 0 23 27 45 60 22 33 46 60 52 60 7 0 7 -4 -1 -13 -6 -8
-8 -17 -4 -20 3 -4 1 -7 -5 -7 -6 0 -16 -16 -23 -35 -7 -19 -17 -35 -22 -35
-5 0 -7 -7 -3 -15 3 -8 1 -15 -4 -15 -6 0 -10 -8 -10 -18 0 -10 -4 -22 -9 -27
-7 -8 -32 -73 -36 -95 -12 -59 -18 -70 -43 -76 -132 -28 -224 -107 -266 -229
-34 -98 -28 -313 12 -390 70 -138 170 -236 253 -248 36 -6 98 11 122 33 11 11
24 20 28 20 4 0 14 2 21 5 21 8 1 -128 -29 -195 -49 -108 -145 -255 -209 -318
-66 -65 -148 -112 -206 -116 -25 -2 -33 -8 -39 -28 -20 -74 19 -199 84 -274
84 -96 115 -117 192 -129 54 -8 73 -13 101 -28 l27 -14 -56 -26 c-31 -14 -96
-35 -144 -47 -128 -32 -157 -50 -166 -101 -6 -33 19 -73 64 -103 35 -23 142
-69 192 -81 15 -4 27 -9 27 -12 0 -3 -14 -21 -30 -40 -58 -66 -122 -225 -136
-340 -10 -75 -10 -222 -1 -295 7 -64 36 -209 44 -221 3 -4 16 4 31 18 14 14
55 46 91 70 36 24 98 69 136 99 39 30 73 52 76 48 3 -4 30 -65 58 -137 110
-274 305 -638 459 -860 56 -81 290 -370 334 -413 29 -29 145 -112 156 -112 5
0 35 -20 68 -45 32 -24 69 -45 80 -45 12 0 84 -31 160 -69 138 -69 218 -101
253 -101 10 0 35 7 54 15 48 20 60 18 22 -2 -41 -22 -126 -53 -147 -53 -9 0
-19 -4 -22 -9 -16 -25 161 34 239 81 17 10 41 22 54 28 52 23 258 188 354 284
214 213 403 488 587 856 72 142 173 374 220 500 15 41 31 74 34 73 8 -1 136
-100 184 -141 36 -30 112 -84 113 -80 3 12 8 38 12 65 7 45 16 57 32 43 16
-14 21 -6 30 48 13 79 14 97 15 197 2 211 -60 386 -179 512 l-39 41 -69 -24
c-62 -22 -129 -38 -208 -50 -16 -3 -39 -7 -51 -9 -11 -2 -52 -7 -90 -10 -38
-4 -76 -9 -84 -11 -10 -4 -12 -2 -5 5 6 6 30 13 53 16 24 3 53 7 65 10 12 2
39 7 59 10 21 2 59 10 85 16 27 6 55 12 63 14 205 44 440 127 493 173 32 28
19 40 -70 67 -49 14 -101 32 -118 41 -28 14 -24 13 23 -2 9 -3 4 2 -11 11 -16
9 -35 14 -43 11 -8 -3 -12 -1 -9 4 3 5 -6 12 -20 16 -14 3 -25 9 -25 13 0 3
23 19 50 34 71 40 189 136 224 182 46 60 74 138 72 203 -1 48 -4 57 -19 56
-12 -1 -20 7 -24 27 -3 16 -6 29 -7 29 0 1 -26 3 -56 7 -30 3 -71 13 -90 23
-58 30 -143 132 -208 251 -29 53 -102 220 -102 235 0 3 12 4 27 1 34 -6 105
20 166 61 25 18 50 32 55 32 25 0 195 -79 267 -124 139 -86 316 -225 288 -226
-25 0 -90 -70 -118 -126 -23 -46 -29 -69 -29 -128 0 -113 55 -203 159 -258 64
-34 253 -27 340 12 130 60 183 207 121 333 -33 68 -157 177 -219 192 -36 9
-40 18 -27 62 20 71 39 175 65 353 22 152 23 508 1 625 -2 11 -7 42 -10 68
-43 296 -162 577 -332 788 -62 78 -83 100 -180 189 -235 218 -545 375 -915
464 -57 14 -120 27 -139 31 -50 8 -102 17 -125 21 -11 2 -58 9 -105 15 -47 6
-101 12 -120 15 -41 5 -467 14 -472 9z m-1198 -569 c0 -2 -8 -10 -17 -17 -16
-13 -17 -12 -4 4 13 16 21 21 21 13z m-91 -82 c-18 -20 -54 -57 -79 -83 -25
-25 -63 -69 -85 -96 -22 -28 -43 -52 -46 -55 -3 -3 -32 -43 -66 -90 -103 -147
-190 -303 -259 -467 -14 -33 -23 -43 -41 -43 -13 0 -23 2 -23 4 0 14 48 111
101 203 146 256 255 399 439 580 85 84 124 114 59 47z m1922 -276 c65 -30 123
-83 164 -148 l27 -45 -38 36 c-126 116 -221 156 -381 161 -35 1 -63 6 -63 9 0
12 49 17 145 15 73 -2 101 -7 146 -28z m-696 -27 c-6 -5 -25 10 -25 20 0 5 6
4 14 -3 8 -7 12 -15 11 -17z m45 -64 c0 -12 0 -11 -24 28 l-17 30 20 -24 c12
-13 21 -28 21 -34z m-706 -19 c-15 -18 -42 -64 -60 -103 -31 -64 -33 -67 -28
-30 8 52 25 84 69 128 46 46 56 48 19 5z m775 -65 c17 -10 31 -23 31 -29 0 -6
15 -15 34 -20 36 -10 616 -353 613 -363 -1 -3 2 -21 6 -38 7 -36 26 -42 52
-16 14 13 21 14 36 5 15 -10 20 -10 23 0 3 7 10 31 17 53 7 22 13 86 13 142 1
57 5 102 9 100 4 -1 84 -105 177 -232 l170 -229 -6 -53 c-4 -45 -3 -53 11 -53
9 0 13 -4 10 -10 -9 -14 7 -12 29 5 10 8 22 12 26 10 5 -3 22 11 40 31 17 20
34 34 37 31 8 -9 -87 -285 -103 -298 -14 -11 -63 -13 -153 -4 -25 2 -99 7
-165 10 -67 4 -137 8 -156 10 -19 2 -68 5 -108 6 -40 1 -75 5 -77 9 -3 4 13
19 34 33 39 26 155 137 149 143 -3 3 -44 -5 -117 -22 -21 -4 -23 -2 -19 20 3
15 2 26 -2 26 -8 0 -62 -40 -71 -53 -5 -7 -88 -30 -156 -41 -15 -3 -73 -15
-128 -26 -55 -12 -111 -24 -125 -26 -14 -3 -109 -22 -212 -43 -104 -21 -188
-35 -188 -32 0 3 12 17 26 30 13 13 29 32 35 43 9 17 6 18 -48 12 -32 -3 -63
-7 -69 -9 -7 -2 -10 4 -7 16 7 25 0 24 -45 -5 -25 -17 -59 -26 -107 -31 -106
-10 -136 -13 -180 -19 -22 -3 -65 -8 -95 -11 -30 -3 -68 -8 -85 -10 -16 -2
-52 -7 -80 -11 -27 -3 -51 -7 -53 -9 -2 -2 21 -12 50 -24 51 -20 52 -20 18
-20 -45 1 -128 -9 -143 -17 -7 -3 5 9 26 28 l38 33 -58 50 c-32 27 -67 60 -78
73 -11 13 -31 37 -45 53 l-25 30 -59 -21 c-33 -11 -62 -18 -64 -15 -3 3 -10 1
-16 -4 -16 -13 -306 -104 -312 -98 -5 5 35 268 41 275 2 2 38 -6 81 -18 44
-12 81 -17 86 -12 11 11 -44 80 -91 113 -18 13 -42 32 -52 42 -11 9 -36 20
-57 23 -20 4 -44 8 -52 9 -8 2 -22 4 -30 5 -37 2 35 23 378 110 l363 91 57
-35 c60 -37 161 -119 175 -142 12 -21 36 -17 48 9 13 29 -19 98 -104 225 l-55
82 87 -5 c47 -3 118 -7 156 -10 39 -2 115 -7 170 -10 55 -3 129 -8 165 -10 36
-2 81 -4 101 -4 31 -1 40 -7 63 -41 38 -58 65 -49 57 18 -1 6 7 12 19 12 12 0
20 7 20 18 0 25 -17 124 -25 145 -4 9 -3 17 3 17 6 0 24 -8 41 -17z m-1691
-240 c-30 -48 -68 -129 -68 -145 0 -9 -3 -9 -11 -1 -14 14 16 84 63 146 40 54
49 54 16 0z m-112 -88 l-1 -55 -32 0 c-18 0 -33 5 -33 10 0 8 56 93 66 100 0
0 0 -25 0 -55z m39 -98 c10 -21 9 -22 -40 -25 -135 -7 -228 -64 -271 -169 -25
-58 -29 -89 -28 -208 0 -100 3 -115 28 -165 16 -30 40 -70 53 -89 22 -28 22
-31 6 -23 -40 22 -122 160 -131 222 -4 25 -7 88 -7 140 0 85 3 101 29 151 31
63 61 89 121 109 22 7 56 21 76 31 20 10 48 19 62 21 15 2 29 7 33 11 13 13
26 7 20 -8 -3 -8 -2 -15 3 -15 5 0 11 9 14 20 7 26 20 25 32 -3z m3309 -173
c66 -17 125 -58 142 -99 19 -46 17 -128 -5 -195 l-18 -55 5 62 c10 135 -61
221 -233 284 l-50 18 55 -1 c30 -1 77 -7 104 -14z m-949 -392 l48 -52 -39 5
c-96 12 -130 18 -148 27 -16 9 -12 14 35 42 30 18 54 33 55 32 0 -1 22 -25 49
-54z m610 -133 c10 -15 -1 -23 -20 -15 -9 3 -13 10 -10 16 8 13 22 13 30 -1z
m431 -40 c163 -50 385 -183 538 -322 24 -20 15 -31 -35 -45 -34 -9 -40 -6
-160 75 -156 106 -315 196 -406 229 l-69 26 25 28 c14 16 29 29 32 30 4 0 38
-10 75 -21z m-3307 -3 c13 -7 19 -16 14 -19 -12 -7 -10 -41 12 -260 5 -49 -14
-14 -21 38 -4 28 -10 52 -15 55 -4 3 -10 25 -13 50 -8 73 -21 116 -29 102 -11
-16 -24 -15 -31 3 -15 41 32 59 83 31z m28 -338 c-3 -8 -6 -5 -6 6 -1 11 2 17
5 13 3 -3 4 -12 1 -19z m193 -111 c0 -7 9 -13 19 -14 11 -1 19 4 17 10 -1 7
-1 8 2 4 2 -4 10 -3 18 4 24 19 16 1 -11 -26 -30 -29 -37 -31 -28 -10 3 9 2
15 -3 14 -23 -4 -33 2 -27 18 5 12 3 14 -7 8 -9 -5 -11 -4 -6 4 9 13 26 5 26
-12z m-89 0 c-8 -11 -5 -14 19 -14 24 0 27 3 19 14 -8 8 -8 13 -1 13 19 0 19
-25 1 -49 -10 -13 -16 -28 -12 -34 11 -17 12 -57 1 -57 -5 0 -6 10 -2 22 6 20
5 21 -9 9 -9 -7 -14 -17 -11 -22 3 -5 0 -9 -5 -9 -6 0 -11 7 -11 16 0 8 -5 12
-10 9 -6 -4 -8 -11 -5 -16 4 -5 1 -9 -4 -9 -6 0 -10 10 -8 21 1 12 -4 24 -11
26 -7 3 -10 -1 -6 -11 3 -9 1 -16 -4 -16 -6 0 -9 9 -7 20 2 11 0 20 -6 20 -5
0 -9 5 -9 10 0 6 11 4 24 -5 18 -12 25 -13 33 -3 21 27 22 36 6 49 -14 12 -15
11 -9 -8 10 -31 -12 -39 -38 -14 -14 15 -16 20 -5 16 9 -3 22 1 29 9 7 9 16
14 20 11 5 -3 11 -1 15 5 3 5 9 10 12 10 3 0 0 -6 -6 -13z m184 -31 c-19 -28
-23 -30 -43 -17 -10 6 -10 10 2 20 8 7 20 10 26 6 5 -3 13 1 16 10 4 9 9 14
11 11 3 -2 -3 -16 -12 -30z m57 -6 c6 0 5 7 -3 17 -12 15 -12 16 1 8 8 -6 18
-10 21 -10 13 0 38 -34 30 -40 -5 -3 -12 4 -16 15 -4 11 -10 18 -15 15 -9 -5
11 -55 22 -55 4 0 14 10 24 23 13 17 15 18 10 3 -4 -12 -2 -17 7 -13 7 3 20
-1 30 -8 14 -10 8 -12 -36 -10 -29 1 -58 4 -64 8 -11 7 -68 -32 -59 -41 3 -3
14 2 24 12 23 20 47 13 49 -14 1 -11 -2 -18 -8 -15 -5 4 -9 13 -9 21 0 18 -9
18 -30 -1 -10 -9 -24 -13 -34 -9 -14 5 -15 9 -4 15 10 7 10 9 1 9 -7 0 -13 5
-13 11 0 8 4 8 14 -1 12 -9 15 -8 13 9 -2 24 -2 24 -28 10 -14 -7 -18 -16 -14
-30 4 -11 2 -19 -5 -19 -6 0 -8 5 -5 10 3 6 4 10 1 10 -2 0 -13 3 -23 7 -16 6
-16 5 -4 -10 9 -11 10 -17 2 -17 -6 0 -11 5 -11 10 0 6 -5 10 -11 10 -5 0 -8
-4 -5 -9 3 -5 -5 -8 -19 -8 -19 0 -24 5 -23 21 0 11 -2 28 -6 37 -10 22 20 47
37 30 9 -10 8 -12 -7 -9 -10 1 -21 -2 -23 -8 -3 -8 9 -11 34 -9 21 1 46 -2 56
-7 13 -6 23 -3 42 16 14 14 25 31 25 38 0 8 5 6 11 -4 5 -10 15 -18 21 -18z
m3395 -47 c-13 -21 -28 -51 -34 -68 -15 -46 -7 -129 18 -177 20 -39 20 -41 3
-28 -90 72 -93 204 -7 285 39 36 47 31 20 -12z m-3242 -35 c4 -3 -15 -5 -41
-4 -26 0 -49 -4 -51 -10 -2 -7 14 -10 44 -9 27 1 42 0 36 -2 -7 -3 -13 -9 -13
-14 0 -6 5 -7 10 -4 6 3 10 1 10 -5 0 -7 -8 -9 -19 -5 -10 3 -23 -1 -30 -9
-11 -12 -8 -14 16 -12 15 2 33 -1 40 -6 9 -8 11 -1 7 28 -2 21 -3 36 -1 33 1
-2 9 -13 17 -23 10 -13 10 -17 3 -12 -7 4 -13 2 -13 -3 0 -6 5 -11 11 -11 8 0
8 -5 -1 -15 -7 -9 -18 -12 -24 -7 -9 6 -35 7 -83 3 -7 0 -13 -5 -13 -9 0 -5
20 -8 45 -7 24 1 42 -2 39 -6 -2 -5 -12 -5 -21 -2 -11 4 -14 3 -9 -5 5 -8 1
-10 -10 -5 -13 5 -15 3 -9 -7 5 -8 4 -11 -3 -6 -5 3 -12 0 -15 -6 -3 -10 -7
-10 -20 1 -20 16 -23 2 -4 -19 10 -12 9 -12 -6 -1 -9 8 -21 11 -24 7 -4 -4 -1
-12 7 -17 12 -9 11 -10 -4 -5 -14 5 -17 2 -12 -9 3 -9 2 -14 -3 -11 -5 3 -8
27 -6 53 2 47 -7 73 -27 73 -7 0 -7 -4 -1 -12 6 -7 10 -31 9 -53 -1 -22 2 -48
7 -59 6 -12 5 -16 -1 -12 -6 3 -12 0 -15 -6 -3 -7 -5 -4 -6 7 -3 56 -6 63 -23
62 -22 -2 -24 -23 -4 -30 23 -9 15 -63 -8 -59 -10 2 -15 -1 -12 -7 4 -5 -4
-15 -16 -22 -13 -7 -26 -17 -30 -23 -11 -16 -10 6 1 22 4 8 11 13 15 13 18 -3
22 1 23 17 1 10 -5 19 -13 19 -9 0 -13 -6 -9 -16 5 -12 3 -13 -5 -4 -9 8 -9
17 -2 29 6 11 7 27 1 42 -5 13 -5 31 0 40 9 18 4 42 -8 42 -7 0 -11 -29 -10
-65 0 -11 0 -29 0 -40 0 -11 -1 -32 -1 -47 0 -15 -5 -30 -10 -33 -7 -4 -9 2
-4 19 8 32 -1 34 -17 4 -10 -18 -8 -24 7 -35 18 -13 17 -14 -8 -9 -23 4 -28 1
-28 -17 0 -16 3 -18 12 -9 7 7 16 12 22 12 5 0 -5 -11 -24 -25 -39 -29 -41
-30 -34 -11 3 8 -1 25 -10 38 -19 30 -66 190 -62 214 2 11 -1 25 -7 32 -5 7
-7 16 -3 20 12 11 74 9 70 -3 -3 -6 5 -11 17 -12 17 -2 18 1 9 13 -9 10 -9 14
-1 14 6 0 11 -5 11 -11 0 -6 5 -7 13 -2 16 10 98 12 118 2 10 -5 24 -2 37 7
21 15 28 10 23 -18 -1 -11 7 -10 30 3 13 7 18 16 14 29 -5 16 0 18 49 16 31
-1 58 -5 61 -8z m95 -172 c0 -2 -6 -9 -14 -15 -11 -9 -16 -9 -22 0 -4 7 -3 9
4 5 6 -3 13 -2 17 4 6 10 15 14 15 6z m-1133 -58 c-3 -7 -5 -2 -5 12 0 14 2
19 5 13 2 -7 2 -19 0 -25z m1066 7 c-3 -9 -8 -14 -10 -11 -3 3 -2 9 2 15 9 16
15 13 8 -4z m-73 -50 c0 -2 -27 -23 -60 -45 -77 -52 -79 -45 -3 9 60 42 63 44
63 36z m2281 -88 c-12 -25 -21 -53 -21 -62 0 -13 -4 -14 -21 -4 l-21 11 21 19
c11 10 28 35 37 54 9 20 19 34 21 31 2 -2 -5 -24 -16 -49z m-2964 -598 l42
-12 -28 -41 c-43 -64 -95 -191 -105 -256 -3 -14 -8 -45 -12 -70 -4 -25 -6 -95
-6 -157 2 -109 -6 -139 -30 -115 -14 14 -18 233 -6 317 6 39 11 79 13 90 5 38
18 80 37 118 23 47 18 58 -10 23 -29 -38 -48 -33 -24 7 12 17 20 36 20 40 -1
22 38 77 52 73 8 -3 34 -10 57 -17z m287 -649 c20 -58 41 -114 46 -125 5 -11
34 -81 65 -155 85 -202 203 -435 312 -615 82 -136 207 -310 298 -415 l48 -55
-55 55 c-162 163 -378 489 -542 818 -55 109 -181 403 -221 515 -24 66 -26 80
-14 87 19 12 20 10 63 -110z"/>
<path d="M1870 3890 c0 -20 -3 -25 -23 -39 -17 -12 -18 -15 -3 -23 20 -11 35
-3 34 20 0 9 3 25 7 35 4 10 3 17 -4 17 -6 0 -11 -4 -11 -10z"/>
<path d="M1810 3880 c0 -5 5 -10 10 -10 6 0 10 5 10 10 0 6 -4 10 -10 10 -5 0
-10 -4 -10 -10z"/>
<path d="M2010 3880 c0 -5 5 -10 10 -10 6 0 10 5 10 10 0 6 -4 10 -10 10 -5 0
-10 -4 -10 -10z"/>
<path d="M2069 3883 c-8 -50 0 -70 16 -42 4 6 14 8 22 5 9 -4 13 -1 10 6 -2 7
-15 12 -28 10 -17 -1 -20 1 -10 7 9 6 10 11 2 15 -6 4 -12 4 -12 -1z"/>
<path d="M1923 3826 l0 -27 33 20 c19 11 34 16 34 10 0 -6 5 -7 11 -4 6 4 8
10 5 13 -11 10 -51 9 -58 -2 -6 -8 -11 -7 -17 3 -6 9 -8 6 -8 -13z"/>
<path d="M1810 3760 c0 -10 26 -20 34 -13 11 12 6 19 -14 20 -11 1 -20 -2 -20
-7z"/>
<path d="M1919 3754 c-6 -8 -22 -12 -37 -9 -13 2 -32 -1 -41 -8 -21 -16 -26
-47 -8 -47 19 0 30 -29 18 -44 -14 -16 3 -41 20 -30 12 6 12 5 1 -8 -11 -13
-9 -15 13 -15 20 0 23 2 14 13 -11 13 -2 19 24 15 4 0 7 6 7 14 0 16 -16 20
-24 6 -3 -5 -17 -8 -30 -8 -22 0 -23 1 -10 14 10 11 11 19 4 34 -6 11 -8 24
-5 29 3 6 1 10 -4 10 -6 0 -11 -4 -11 -10 0 -5 -5 -10 -11 -10 -8 0 -8 4 0 14
6 7 23 14 38 14 21 0 23 -2 10 -10 -22 -12 -21 -25 2 -31 20 -5 41 9 41 27 0
6 -5 5 -12 -2 -7 -7 -16 -12 -21 -12 -5 0 -2 6 5 13 18 18 86 16 98 -2 5 -9 5
-22 -1 -33 -6 -12 -6 -25 1 -37 5 -11 8 -26 7 -33 -2 -7 -2 -10 0 -5 3 4 13
-3 23 -15 l18 -22 0 27 c0 15 -3 25 -7 23 -4 -3 -14 8 -22 23 -16 27 -16 28 7
25 31 -3 30 11 0 39 -19 17 -22 27 -14 38 8 11 9 10 4 -4 -4 -11 -2 -17 5 -15
6 2 10 7 10 11 -1 4 -1 13 -1 21 0 9 -9 14 -20 13 -11 -1 -19 -6 -16 -12 2 -6
-4 -11 -14 -11 -10 0 -16 5 -14 11 7 16 -33 16 -47 -1z m26 -4 c3 -5 1 -10 -4
-10 -6 0 -11 5 -11 10 0 6 2 10 4 10 3 0 8 -4 11 -10z m85 -64 c0 -3 -4 -8
-10 -11 -5 -3 -10 -1 -10 4 0 6 5 11 10 11 6 0 10 -2 10 -4z"/>
<path d="M2075 3759 c-4 -6 -14 -8 -22 -5 -9 4 -13 1 -10 -6 2 -7 13 -13 24
-13 12 0 31 -9 43 -20 22 -20 22 -20 19 0 -3 14 2 20 14 20 10 0 22 6 26 14 5
8 11 9 15 3 6 -11 -21 -26 -41 -23 -8 1 -10 -4 -7 -14 3 -8 0 -17 -8 -20 -8
-3 -14 -16 -15 -28 l-2 -22 18 21 c15 19 19 20 27 7 8 -14 11 -13 24 3 13 16
13 17 -2 11 -32 -11 -31 15 1 40 17 13 31 28 31 32 0 14 -55 6 -83 -12 -26
-17 -33 -13 -28 16 2 11 -17 8 -24 -4z"/>
<path d="M2036 3722 c-3 -5 6 -21 18 -37 l24 -29 0 27 c0 27 -31 56 -42 39z"/>
<path d="M1942 3715 c9 -10 -33 -44 -47 -39 -6 3 -11 -5 -11 -16 0 -26 6 -25
35 5 13 14 30 25 38 25 18 0 12 22 -8 28 -8 3 -11 1 -7 -3z"/>
<path d="M1830 3666 c0 -9 5 -16 10 -16 6 0 10 4 10 9 0 6 -4 13 -10 16 -5 3
-10 -1 -10 -9z"/>
<path d="M1935 3670 c-4 -6 0 -21 8 -34 11 -16 12 -27 5 -37 -8 -11 -9 -11 -5
3 4 12 0 16 -14 15 -22 -1 -24 -8 -8 -24 9 -9 5 -11 -15 -9 -33 4 -41 -7 -24
-36 7 -13 11 -27 10 -32 -2 -5 3 -4 11 2 8 7 16 10 18 8 2 -2 5 6 5 19 1 12
12 33 24 45 14 14 19 27 14 38 -4 9 -7 25 -8 35 0 19 -11 23 -21 7z m-20 -119
c-3 -6 -11 -11 -16 -11 -5 0 -4 6 3 14 14 16 24 13 13 -3z"/>
</g>
</svg>
